<svg style="margin-top: 20px" xmlns="http://www.w3.org/2000/svg" xmlns:xlink="http://www.w3.org/1999/xlink" width="101" height="27" viewBox="0 0 101 27">
		    <defs>
		        <path id="a" d="M0 .02h28.34v26.005H0z"/>
		        <path id="c" d="M.093.11h22.681v26.01H.094z"/>
		    </defs>
		    <g fill="none" fill-rule="evenodd">
		        <g transform="translate(-.842 .142)">
		            <mask id="b" fill="#fff">
		                <use xlink:href="#a"/>
		            </mask>
		            <path fill="#515151" d="M9.201.026L4.557.02A4.524 4.524 0 0 0 .02 4.535L.018 6.54.003 18.743 0 21.483a4.524 4.524 0 0 0 4.527 4.526h.82l8.923.01 4.417.006-5.658-5.656h-.528l-4.947-.006h-.756a1.132 1.132 0 0 1-1.13-1.133v-.64l.013-11.28V6.8c.001-.623.509-1.128 1.134-1.128l.643.001 13.65.016h.433c.625.002 1.132.508 1.132 1.132l-.001.679-.011 9.59v.463l5.657 5.658.003-2.571.017-14.632.002-1.44A4.524 4.524 0 0 0 23.812.043L21.52.04 9.2.026z" mask="url(#b)"/>
		        </g>
		        <path fill="#FF8200" d="M12.99 18.485l6.885 6.885c.44.44 1.312.8 1.934.801l4.532.005c.622 0 .772-.36.33-.798l-6.884-6.885c-.44-.44-1.31-.802-1.931-.802l-4.533-.006c-.622 0-.772.36-.332.8"/>
		        <path fill="#515151" d="M32.21 26.183l25.167.029 2.945.003a4.523 4.523 0 0 0 4.537-4.514l.001-1.129.024-20.34L59.22.227l-.02 16.837-.003 2.371c0 .625-.508 1.13-1.133 1.13l-1.87-.002-4.569-.005-.924-.002.023-20.339L45.06.21l-.023 20.339-8.495-.01L36.565.2 30.9.195l-.03 25.988h1.34zM73.916 26.231l.03-25.988-5.665-.007-.03 25.989z"/>
		        <g transform="translate(77.225 .142)">
		            <mask id="d" fill="#fff">
		                <use xlink:href="#c"/>
		            </mask>
		            <path fill="#515151" d="M5.775 6.89c0-.623.508-1.128 1.133-1.127l6.086.007 8.068.01h1.705l.007-5.649L21.068.13 13 .12 4.65.11A4.524 4.524 0 0 0 .114 4.626L.109 7.563l-.011 9.961-.005 4.05a4.524 4.524 0 0 0 4.528 4.524l6.487.008 10.281.012 1.355.001.007-5.648-1.355-.002-10.281-.012-4.223-.005A1.13 1.13 0 0 1 5.76 19.32l.003-2.905.008-6.609.003-2.915z" mask="url(#d)"/>
		        </g>
		    </g>
		</svg>
